<svg xmlns="http://www.w3.org/2000/svg" xmlns:xlink="http://www.w3.org/1999/xlink" id="Layer_1" width="266" height="64" x="0" y="0" enable-background="new 0 0 266 64" version="1.1" viewBox="0 0 266 64" xml:space="preserve"><g><path fill="#FFF" d="M54.421,17.531l2.393-5.111l-6-6.095l-5.036,2.43c-2.478-1.566-5.22-2.738-8.143-3.427L35.768,0h-8.492 l-1.863,5.328c-2.928,0.688-5.67,1.86-8.143,3.427l-5.036-2.43L6.229,12.42l2.393,5.111c-1.543,2.512-2.697,5.295-3.372,8.265 L0,27.69v8.618l5.25,1.896c0.675,2.968,1.829,5.753,3.372,8.265l-2.393,5.111l6.004,6.095l5.036-2.43 c2.473,1.567,5.215,2.738,8.143,3.427L27.275,64h8.492l1.868-5.327c2.923-0.688,5.665-1.859,8.143-3.427l5.036,2.428l6-6.095 l-2.393-5.11c1.543-2.513,2.703-5.296,3.377-8.266l5.25-1.895V27.69l-5.25-1.896C57.118,22.826,55.964,20.043,54.421,17.531z M31.521,50.714c-10.181,0-18.434-8.379-18.434-18.714c0-10.336,8.253-18.714,18.434-18.714S49.96,21.664,49.96,32 S41.707,50.714,31.521,50.714z"/><path fill="#FFF" d="M31.562,31.538l-11.07-12.002l6.719,14.961c-0.64,1.493-0.544,3.275,0.415,4.729 c1.494,2.267,4.516,2.873,6.749,1.355c2.238-1.52,2.832-4.589,1.339-6.854C34.753,32.274,33.165,31.505,31.562,31.538z"/><g><path fill="#FFF" d="M88.16,18.699c0-0.771,0.485-1.261,1.244-1.261h4.271V4.418c0-0.771,0.485-1.26,1.244-1.26 s1.244,0.489,1.244,1.26v13.021h5.655c0.759,0,1.239,0.49,1.239,1.261c0,0.77-0.479,1.26-1.239,1.26h-5.655v19.462 c0,3.151,2.548,5.742,5.655,5.742c0.759,0,1.239,0.488,1.239,1.259c0,0.77-0.479,1.261-1.239,1.261 c-4.416,0-8.143-3.781-8.143-8.262V19.959h-4.271C88.645,19.959,88.16,19.469,88.16,18.699z"/><path fill="#FFF" d="M110.915,7.918c0-1.05,0.899-1.96,1.933-1.96c1.104,0,1.928,0.91,1.928,1.96s-0.824,1.96-1.928,1.96 C111.814,9.878,110.915,8.968,110.915,7.918z M112.848,47.683c-0.759,0-1.244-0.491-1.244-1.261V18.419 c0-0.771,0.484-1.26,1.244-1.26s1.239,0.489,1.239,1.26v28.003C114.087,47.191,113.607,47.683,112.848,47.683z"/><path fill="#FFF" d="M125.396,60.425V18.699c0-0.771,0.485-1.261,1.244-1.261h6.894c4.416,0,8.138,3.781,8.138,8.262v13.44 c0,4.48-3.722,8.263-8.138,8.263h-5.655v13.021c0,0.77-0.484,1.259-1.239,1.259C125.881,61.684,125.396,61.194,125.396,60.425z M133.534,19.959h-5.655v24.923h5.655c3.107,0,5.655-2.591,5.655-5.741V25.7C139.189,22.549,136.642,19.959,133.534,19.959z"/><path fill="#FFF" d="M151.323,46.143V4.418c0-1.19,0.899-2.101,2.068-2.101c1.108,0,2.068,0.91,2.068,2.101v12.181h4.825 c4.906,0,8.972,4.06,8.972,9.102v13.44c0,5.041-4.065,9.102-8.972,9.102h-6.894C152.223,48.242,151.323,47.332,151.323,46.143z M155.46,44.041h4.825c2.697,0,4.836-2.169,4.836-4.9V25.7c0-2.73-2.139-4.901-4.836-4.901h-4.825V44.041z"/><path fill="#FFF" d="M177.25,39.421V25.42c0-5.041,3.996-9.102,8.962-9.102c4.896,0,8.972,4.061,8.972,9.102v14.001 c0,5.04-4.076,9.101-8.972,9.101C181.246,48.521,177.25,44.461,177.25,39.421z M181.387,25.42v14.001c0,2.73,2.138,4.9,4.825,4.9 c2.697,0,4.836-2.17,4.836-4.9V25.42c0-2.73-2.139-4.9-4.836-4.9C183.524,20.52,181.387,22.689,181.387,25.42z"/><path fill="#FFF" d="M215.036,25.279c0-1.96-1.169-3.64-2.897-4.41c-1.858-0.77-3.787-0.35-5.096,1.05 c-0.42,0.42-0.899,0.63-1.519,0.63c-0.55,0-1.039-0.21-1.448-0.63c-0.42-0.42-0.62-0.91-0.62-1.471c0-0.63,0.2-1.119,0.62-1.469 c2.547-2.591,6.344-3.36,9.65-1.961c3.317,1.4,5.455,4.621,5.455,8.261v20.863c0,1.189-0.969,2.1-2.067,2.1h-6.904 c-4.966,0-8.962-4.061-8.962-9.102c0-5.04,3.996-9.101,8.962-9.101h4.826V25.279z M210.21,44.041h4.826v-9.8h-4.826 c-2.688,0-4.825,2.17-4.825,4.899C205.385,41.872,207.522,44.041,210.21,44.041z"/><path fill="#FFF" d="M228.273,46.422V18.699c0-1.19,0.899-2.101,2.078-2.101h6.895c1.588,0,3.037,0.42,4.485,1.19 c1.029,0.63,1.31,1.819,0.75,2.869c-0.55,1.051-1.789,1.401-2.828,0.771c-0.759-0.421-1.578-0.631-2.407-0.631h-4.826v25.623 c0,1.19-0.898,2.1-2.068,2.1C229.173,48.521,228.273,47.612,228.273,46.422z"/><path fill="#FFF" d="M248.066,39.141V25.7c0-5.042,4.006-9.102,8.972-9.102h4.825V4.418c0-1.19,0.899-2.101,2.068-2.101 c1.1,0,2.068,0.91,2.068,2.101v41.725c0,1.189-0.969,2.1-2.068,2.1h-6.894C252.072,48.242,248.066,44.182,248.066,39.141z M252.202,25.7v13.44c0,2.731,2.138,4.9,4.836,4.9h4.825V20.799h-4.825C254.34,20.799,252.202,22.97,252.202,25.7z"/></g></g></svg>