<?xml version="1.0" encoding="UTF-8"?>
<!-- Generator: Adobe Illustrator 17.0.2, SVG Export Plug-In . SVG Version: 6.00 Build 0)  -->
<!DOCTYPE svg PUBLIC "-//W3C//DTD SVG 1.1//EN" "http://www.w3.org/Graphics/SVG/1.1/DTD/svg11.dtd">
<svg version="1.1" id="Warstwa_1" xmlns="http://www.w3.org/2000/svg" xmlns:xlink="http://www.w3.org/1999/xlink" x="0px" y="0px" width="100px" height="100px" viewBox="0 0 100 100" enable-background="new 0 0 100 100" xml:space="preserve">
<g>
	<path fill="#6871B0" d="M50,0C22.386,0,0,22.386,0,50s22.386,50,50,50s50-22.386,50-50S77.614,0,50,0z M50,96   C24.636,96,4,75.364,4,50S24.636,4,50,4s46,20.636,46,46S75.364,96,50,96z"/>
	<path fill="#6871B0" d="M77.9,39.258l-4.489-7.783c-1.063-1.889-2.447-2.285-3.42-2.285c-0.768,0-1.564,0.25-2.338,0.725   l-4.457,2.584c-1.491-1.143-3.043-2.052-4.632-2.716v-5.515c0-2.629-1.57-4.199-4.2-4.199h-8.745c-2.629,0-4.198,1.57-4.198,4.199   v5.58c-1.103,0.473-2.182,1.046-3.229,1.717c-0.357,0.238-0.715,0.493-1.072,0.756l-4.788-2.755   c-0.789-0.458-1.568-0.69-2.314-0.69c-0.806,0-2.319,0.294-3.383,2.232l-4.574,7.848c-0.247,0.465-0.99,1.865-0.453,3.369   c0.27,0.902,0.944,1.681,2.03,2.332l4.608,2.641c-0.112,0.901-0.167,1.81-0.167,2.753l0.005,0.726   c0.032,0.532,0.065,1.075,0.123,1.629l-4.582,2.648c-2.142,1.254-2.776,3.202-1.741,5.344l4.7,8.195   c1.057,1.818,2.429,2.2,3.394,2.2c0.756,0,1.548-0.238,2.344-0.701l4.463-2.544c1.439,1.096,2.992,2.002,4.636,2.706v5.48   c0,2.629,1.569,4.198,4.198,4.198h8.745c2.63,0,4.2-1.569,4.2-4.198v-5.579c1.044-0.446,2.105-0.992,3.168-1.63l1.136-0.842   l4.785,2.754c0.807,0.468,1.595,0.704,2.341,0.704c0.939,0,2.29-0.376,3.41-2.203l4.486-7.778c0.172-0.29,0.345-0.61,0.448-0.99   c0.302-0.927,0.328-1.77,0.069-2.537c-0.236-0.645-0.79-1.56-2.054-2.233l-4.617-2.687c0.112-0.905,0.167-1.817,0.167-2.762   l-0.005-0.727c-0.031-0.524-0.063-1.059-0.107-1.599l4.643-2.641C78.677,43.608,79.211,41.52,77.9,39.258z M74.907,42.401   l-6.311,3.588l0.115,0.987c0.094,0.796,0.141,1.588,0.19,2.375v0.6c0,1.134-0.091,2.211-0.277,3.293l-0.177,1.027l6.444,3.748   c0.37,0.197,0.617,0.425,0.683,0.604c0.018,0.049,0.032,0.258-0.098,0.646l-0.03,0.103c-0.005,0.015-0.028,0.075-0.146,0.273   l-4.475,7.76c-0.3,0.489-0.58,0.736-0.832,0.736c-0.119,0-0.386-0.038-0.841-0.302l-6.504-3.743l-2.525,1.896   c-1.217,0.725-2.421,1.311-3.581,1.741l-0.979,0.363v7.638c0,0.975-0.225,1.198-1.2,1.198h-8.745c-0.974,0-1.198-0.224-1.198-1.198   v-7.537l-0.977-0.363c-2.039-0.76-3.856-1.82-5.556-3.243l-0.8-0.669l-6.263,3.57c-0.333,0.193-0.635,0.301-0.848,0.301   c-0.092-0.017-0.388,0-0.797-0.704l-4.431-7.681c-0.054-0.139-0.124-0.289-0.221-0.438c-0.23-0.503-0.256-0.819,0.606-1.324   l6.358-3.675l-0.184-1.035c-0.134-0.752-0.18-1.523-0.229-2.285V50.05c0-1.135,0.091-2.211,0.279-3.289l0.181-1.036l-6.384-3.657   c-0.479-0.288-0.649-0.518-0.674-0.608l-0.046-0.141c-0.085-0.222,0.136-0.696,0.246-0.906l4.564-7.829   c0.468-0.851,0.866-0.84,1.586-0.422l6.503,3.741l0.791-0.593c0.577-0.433,1.155-0.867,1.708-1.236   c1.151-0.737,2.366-1.344,3.61-1.806l0.978-0.363v-7.638c0-0.975,0.224-1.199,1.198-1.199h8.745c0.976,0,1.2,0.224,1.2,1.199v7.61   l1.006,0.351c1.896,0.662,3.756,1.75,5.527,3.233l0.806,0.674l6.286-3.645c0.428-0.262,0.686-0.301,0.802-0.301   c0.313,0,0.611,0.412,0.813,0.771l4.498,7.799C75.793,41.608,75.716,41.904,74.907,42.401z"/>
	<path fill="#6871B0" d="M49.976,39.056c-2.999,0-5.593,1.073-7.709,3.189c-2.115,2.117-3.187,4.726-3.187,7.756   c0,2.997,1.072,5.59,3.188,7.705c2.149,2.148,4.743,3.238,7.708,3.238c2.963,0,5.556-1.09,7.705-3.237   c2.148-2.146,3.237-4.739,3.237-7.706c0-3-1.089-5.609-3.237-7.756C55.566,40.129,52.973,39.056,49.976,39.056z M55.56,55.585   c-1.588,1.588-3.414,2.359-5.583,2.359c-2.171,0-3.999-0.771-5.587-2.359c-1.554-1.554-2.309-3.381-2.309-5.584   c0-2.237,0.755-4.08,2.309-5.635c1.555-1.554,3.382-2.31,5.587-2.31c2.203,0,4.029,0.756,5.583,2.311   c1.587,1.586,2.358,3.43,2.358,5.635C57.918,52.173,57.147,53.999,55.56,55.585z"/>
</g>
</svg>