<?xml version="1.0" encoding="UTF-8"?>
<!-- Generator: Adobe Illustrator 17.0.2, SVG Export Plug-In . SVG Version: 6.00 Build 0)  -->
<!DOCTYPE svg PUBLIC "-//W3C//DTD SVG 1.1//EN" "http://www.w3.org/Graphics/SVG/1.1/DTD/svg11.dtd">
<svg version="1.1" id="Warstwa_1" xmlns="http://www.w3.org/2000/svg" xmlns:xlink="http://www.w3.org/1999/xlink" x="0px" y="0px" width="100px" height="100px" viewBox="0 0 100 100" enable-background="new 0 0 100 100" xml:space="preserve">
<g>
	<path fill="#F9A444" d="M50,0C22.386,0,0,22.386,0,50s22.386,50,50,50s50-22.386,50-50S77.614,0,50,0z M50,96   C24.635,96,4,75.364,4,50C4,24.635,24.635,4,50,4s46,20.635,46,46C96,75.364,75.365,96,50,96z"/>
	<path fill="#F9A444" d="M73.556,22.101H42.108c-1.894,0-3.372,0.526-4.393,1.563c-1.01,1.026-1.508,2.483-1.479,4.308v3.139h-8.894   c-3.76,0-5.916,2.156-5.916,5.916V59.42c0,3.731,2.156,5.872,5.916,5.872h0.999v16.13l14.61-16.13h15.84   c0.343,0,0.731,0,1.119-0.056c1.816-0.223,3.156-1.056,3.945-2.409l8.703,9.638V56.281h0.998c3.731,0,5.871-2.14,5.871-5.871   V27.973C79.427,24.241,77.287,22.101,73.556,22.101z M59.514,62.263c-0.206,0.029-0.445,0.029-0.723,0.029h-17.17l-10.28,11.349   V62.292h-3.999c-2.099,0-2.916-0.806-2.916-2.872V37.027c0-2.125,0.791-2.916,2.916-2.916h8.894v16.273   c-0.057,3.356,1.712,5.486,4.776,5.831c0.391,0.065,0.75,0.065,1.096,0.065h15.837l3.654,4.047   C61.37,61.733,60.63,62.125,59.514,62.263z M76.427,50.41c0,2.066-0.805,2.871-2.871,2.871h-3.998v11.385l-5.282-5.849   l-4.996-5.536H42.108c-0.254,0-0.455,0-0.679-0.035c-1.343-0.152-2.229-0.688-2.193-2.836V32.611v-4.662   c-0.016-1.015,0.192-1.748,0.617-2.18c0.437-0.443,1.195-0.668,2.255-0.668h31.447c2.066,0,2.871,0.805,2.871,2.872V50.41z"/>
</g>
</svg>