<?xml version="1.0" encoding="UTF-8"?>
<!-- Generator: Adobe Illustrator 17.0.2, SVG Export Plug-In . SVG Version: 6.00 Build 0)  -->
<!DOCTYPE svg PUBLIC "-//W3C//DTD SVG 1.1//EN" "http://www.w3.org/Graphics/SVG/1.1/DTD/svg11.dtd">
<svg version="1.1" id="Warstwa_1" xmlns="http://www.w3.org/2000/svg" xmlns:xlink="http://www.w3.org/1999/xlink" x="0px" y="0px" width="100px" height="100px" viewBox="0 0 100 100" enable-background="new 0 0 100 100" xml:space="preserve">
<g>
	<path fill="#65C95D" d="M50,0C22.386,0,0,22.386,0,50s22.386,50,50,50s50-22.386,50-50S77.614,0,50,0z M50,96   C24.635,96,4,75.364,4,50C4,24.635,24.635,4,50,4s46,20.635,46,46C96,75.364,75.365,96,50,96z"/>
	<path fill="#65C95D" d="M71.924,30.174c-2.196-2.195-4.908-2.179-7.075-0.012L44.22,50.419l-9.055-9.021   c-2.196-2.196-4.896-2.193-7.087-0.001l-4.462,4.46c-2.217,2.22-2.217,4.869,0.001,7.087l16.87,16.87   c1.097,1.097,2.289,1.654,3.544,1.654c1.256,0,2.448-0.556,3.526-1.636l28.831-28.11c2.215-2.218,2.215-4.867-0.001-7.087   L71.924,30.174z M73.631,38.933L44.8,67.043c-0.371,0.373-0.647,0.505-0.771,0.505c-0.122,0-0.399-0.132-0.772-0.505l-16.87-16.87   c-0.67-0.671-0.67-0.873,0-1.543l4.463-4.46c0.371-0.373,0.647-0.505,0.771-0.505c0.122,0,0.399,0.132,0.775,0.508l10.431,10.392   c0.759,0.758,1.989,0.762,2.756,0.01l22.025-21.628c0.373-0.373,0.648-0.505,0.772-0.505c0.122,0,0.399,0.132,0.772,0.505   l4.46,4.459C74.283,38.077,74.283,38.28,73.631,38.933z"/>
</g>
</svg>