<?xml version="1.0" encoding="UTF-8"?>
<!-- Generator: Adobe Illustrator 17.0.2, SVG Export Plug-In . SVG Version: 6.00 Build 0)  -->
<!DOCTYPE svg PUBLIC "-//W3C//DTD SVG 1.1//EN" "http://www.w3.org/Graphics/SVG/1.1/DTD/svg11.dtd">
<svg version="1.1" id="Warstwa_1" xmlns="http://www.w3.org/2000/svg" xmlns:xlink="http://www.w3.org/1999/xlink" x="0px" y="0px" width="400px" height="64px" viewBox="0 0 400 64" enable-background="new 0 0 400 64" xml:space="preserve">
<g>
	<path fill="#FFFFFF" d="M55.245,17.531l2.429-5.111L51.58,6.325l-5.111,2.43c-2.512-1.567-5.295-2.739-8.265-3.427L36.309,0H27.69   l-1.895,5.328c-2.969,0.688-5.753,1.86-8.265,3.427l-5.111-2.43L6.325,12.42l2.43,5.111c-1.567,2.512-2.739,5.295-3.427,8.265   L0,27.69v8.619l5.328,1.895c0.688,2.969,1.86,5.753,3.427,8.265l-2.43,5.111l6.095,6.095l5.111-2.43   c2.512,1.567,5.295,2.739,8.265,3.427L27.69,64h8.619l1.895-5.328c2.97-0.688,5.753-1.86,8.265-3.427l5.111,2.429l6.095-6.095   l-2.429-5.111c1.567-2.512,2.739-5.295,3.427-8.265L64,36.309V27.69l-5.328-1.895C57.984,22.826,56.812,20.043,55.245,17.531z    M32,50.714c-10.336,0-18.714-8.379-18.714-18.714c0-10.336,8.379-18.714,18.714-18.714S50.714,21.664,50.714,32   C50.714,42.336,42.336,50.714,32,50.714z"/>
	<path fill="#FFFFFF" d="M32.038,32.764L20.8,20.762l6.822,14.96c-0.651,1.493-0.553,3.275,0.421,4.729   c1.518,2.267,4.586,2.873,6.853,1.355s2.873-4.587,1.355-6.853C35.277,33.499,33.666,32.73,32.038,32.764z"/>
	<path fill="#FFFFFF" d="M99.718,12c-1.028,0-1.813,0.785-1.813,1.813v10.514h-4.23c-4.35,0-7.855,3.504-7.855,7.855v11.601   c0,4.349,3.505,7.855,7.855,7.855h6.043c0.967,0,1.813-0.785,1.813-1.814V13.813C101.531,12.785,100.685,12,99.718,12z    M97.905,48.012h-4.23c-2.356,0-4.23-1.872-4.23-4.229V32.182c0-2.356,1.873-4.231,4.23-4.231h4.23V48.012z"/>
	<path fill="#FFFFFF" d="M118.508,24.689c-2.901-1.209-6.224-0.544-8.459,1.692c-0.363,0.303-0.543,0.725-0.543,1.27   c0,0.482,0.181,0.906,0.543,1.268c0.363,0.364,0.786,0.544,1.269,0.544c0.544,0,0.967-0.181,1.33-0.544   c1.148-1.207,2.84-1.571,4.471-0.906c1.511,0.665,2.538,2.115,2.538,3.807v4.11h-4.23c-4.35,0-7.855,3.504-7.855,7.855   c0,4.349,3.505,7.855,7.855,7.855h6.043c0.966,0,1.812-0.785,1.812-1.814V31.819C123.281,28.677,121.407,25.898,118.508,24.689z    M119.656,48.012h-4.23c-2.356,0-4.23-1.872-4.23-4.229s1.873-4.231,4.23-4.231h4.23V48.012z"/>
	<path fill="#FFFFFF" d="M140.924,38.225l-5.62-3.929c-0.966-0.663-1.51-1.571-1.571-2.718c-0.06-1.149,0.302-2.115,1.148-2.901   c0.846-0.785,1.873-1.087,3.021-0.906c1.148,0.181,2.054,0.785,2.598,1.752c0.483,0.906,1.571,1.149,2.477,0.665   c0.907-0.484,1.148-1.571,0.665-2.477c-1.148-1.934-3.021-3.142-5.196-3.566c-2.176-0.301-4.351,0.363-5.982,1.874   c-1.631,1.45-2.537,3.564-2.356,5.8c0.181,2.176,1.208,4.17,3.082,5.438l5.619,3.988c1.028,0.725,1.572,1.693,1.632,2.901   c0.121,1.209-0.302,2.236-1.208,3.082c-0.967,0.846-2.055,1.149-3.203,0.966c-1.208-0.181-2.114-0.846-2.779-1.872   c-0.483-0.906-1.571-1.149-2.477-0.665c-0.907,0.484-1.148,1.571-0.665,2.477c1.148,1.995,3.021,3.264,5.378,3.686   c2.236,0.301,4.471-0.301,6.163-1.933c1.692-1.511,2.598-3.626,2.417-5.982C143.885,41.548,142.797,39.613,140.924,38.225z"/>
	<path fill="#FFFFFF" d="M158.989,24.327h-4.23V13.813c0-1.028-0.785-1.813-1.812-1.813c-0.967,0-1.813,0.785-1.813,1.813v36.254   c0,1.027,0.846,1.812,1.813,1.812c1.027,0,1.812-0.785,1.812-1.812V27.952h4.23c2.356,0,4.23,1.874,4.23,4.231v17.885   c0,1.027,0.846,1.812,1.813,1.812c1.028,0,1.813-0.785,1.813-1.812V32.182C166.845,27.831,163.339,24.327,158.989,24.327z"/>
	<path fill="#FFFFFF" d="M182.673,24.327h-4.23V13.813c0-1.028-0.846-1.813-1.812-1.813c-1.027,0-1.813,0.785-1.813,1.813v36.011   c0,1.028,0.786,1.814,1.813,1.814h6.042c4.29,0,7.856-3.505,7.856-7.855V32.182C190.529,27.831,186.963,24.327,182.673,24.327z    M186.903,43.784c0,2.356-1.873,4.229-4.23,4.229h-4.23V27.952h4.23c2.356,0,4.23,1.874,4.23,4.231V43.784z"/>
	<path fill="#FFFFFF" d="M205.391,24.084c-4.35,0-7.855,3.505-7.855,7.855v12.085c0,4.351,3.505,7.855,7.855,7.855   c4.29,0,7.856-3.504,7.856-7.855V31.939C213.246,27.59,209.681,24.084,205.391,24.084z M209.62,44.025   c0,2.356-1.873,4.229-4.23,4.229s-4.23-1.872-4.23-4.229V31.939c0-2.356,1.873-4.229,4.23-4.229s4.23,1.872,4.23,4.229V44.025z"/>
	<path fill="#FFFFFF" d="M229.498,24.689c-2.901-1.209-6.224-0.544-8.459,1.692c-0.363,0.303-0.543,0.725-0.543,1.27   c0,0.482,0.181,0.906,0.543,1.268c0.363,0.364,0.785,0.544,1.269,0.544c0.544,0,0.967-0.181,1.33-0.544   c1.148-1.207,2.84-1.571,4.471-0.906c1.511,0.665,2.538,2.115,2.538,3.807v4.11h-4.23c-4.35,0-7.855,3.504-7.855,7.855   c0,4.349,3.505,7.855,7.855,7.855h6.043c0.966,0,1.812-0.785,1.812-1.814V31.819C234.271,28.677,232.398,25.898,229.498,24.689z    M230.646,48.012h-4.23c-2.356,0-4.23-1.872-4.23-4.229s1.873-4.231,4.23-4.231h4.23V48.012z"/>
	<path fill="#FFFFFF" d="M254.028,25.354c-1.269-0.665-2.537-1.027-3.927-1.027h-6.042c-1.028,0-1.813,0.786-1.813,1.812v23.928   c0,1.027,0.785,1.812,1.813,1.812c1.027,0,1.812-0.785,1.812-1.812V27.952h4.23c0.725,0,1.45,0.181,2.115,0.544   c0.906,0.544,1.994,0.241,2.477-0.665C255.176,26.925,254.935,25.898,254.028,25.354z"/>
	<path fill="#FFFFFF" d="M273.483,12c-1.028,0-1.813,0.785-1.813,1.813v10.514h-4.23c-4.35,0-7.855,3.504-7.855,7.855v11.601   c0,4.349,3.505,7.855,7.855,7.855h6.043c0.966,0,1.813-0.785,1.813-1.814V13.813C275.296,12.785,274.45,12,273.483,12z    M271.67,48.012h-4.23c-2.356,0-4.23-1.872-4.23-4.229V32.182c0-2.356,1.873-4.231,4.23-4.231h4.23V48.012z"/>
	<path fill="#FFFFFF" d="M285.325,46.925c-1.39,0-2.538,1.147-2.538,2.537S283.935,52,285.325,52c1.39,0,2.538-1.147,2.538-2.537   S286.715,46.925,285.325,46.925z"/>
	<path fill="#FFFFFF" d="M302.484,24.81c-3.867,0-7.13,3.262-7.13,7.13v12.085c0,3.867,3.263,7.13,7.13,7.13   c3.867,0,7.13-3.263,7.13-7.13V31.939C309.613,28.072,306.351,24.81,302.484,24.81z M307.438,44.025   c0,2.72-2.236,4.954-4.954,4.954c-2.72,0-4.955-2.234-4.955-4.954V31.939c0-2.718,2.235-4.954,4.955-4.954   c2.718,0,4.954,2.236,4.954,4.954V44.025z"/>
	<path fill="#FFFFFF" d="M328.101,14.901c0.665,0,1.089-0.423,1.089-1.088s-0.424-1.088-1.089-1.088c-3.867,0-7.13,3.263-7.13,7.13   v5.195h-3.747c-0.663,0-1.087,0.424-1.087,1.089s0.424,1.087,1.087,1.087h3.747v22.841c0,0.665,0.424,1.087,1.089,1.087   c0.663,0,1.087-0.422,1.087-1.087V27.226h4.954c0.665,0,1.089-0.422,1.089-1.087s-0.424-1.089-1.089-1.089h-4.954v-5.195   C323.147,17.136,325.383,14.901,328.101,14.901z"/>
	<path fill="#FFFFFF" d="M345.985,14.901c0.665,0,1.089-0.423,1.089-1.088s-0.424-1.088-1.089-1.088c-3.867,0-7.13,3.263-7.13,7.13   v5.195h-3.747c-0.663,0-1.087,0.424-1.087,1.089s0.424,1.087,1.087,1.087h3.747v22.841c0,0.665,0.424,1.087,1.089,1.087   c0.663,0,1.087-0.422,1.087-1.087V27.226h4.954c0.665,0,1.089-0.422,1.089-1.087s-0.424-1.089-1.089-1.089h-4.954v-5.195   C341.031,17.136,343.267,14.901,345.985,14.901z"/>
	<path fill="#FFFFFF" d="M355.652,15.142c-0.906,0-1.692,0.785-1.692,1.692c0,0.906,0.786,1.691,1.692,1.691   c0.966,0,1.692-0.785,1.692-1.691C357.343,15.927,356.618,15.142,355.652,15.142z"/>
	<path fill="#FFFFFF" d="M355.652,24.81c-0.665,0-1.089,0.424-1.089,1.089v24.169c0,0.665,0.424,1.087,1.089,1.087   s1.087-0.422,1.087-1.087V25.898C356.738,25.233,356.316,24.81,355.652,24.81z"/>
	<path fill="#FFFFFF" d="M371.118,27.347c1.874-0.725,3.988-0.301,5.438,1.089c0.181,0.181,0.424,0.301,0.725,0.301   c0.303,0,0.605-0.121,0.785-0.301s0.303-0.424,0.303-0.725s-0.122-0.605-0.303-0.785c-2.115-2.115-5.075-2.72-7.734-1.571   c-2.718,1.147-4.411,3.686-4.411,6.585v12.085c0,2.901,1.693,5.438,4.411,6.587c2.66,1.147,5.619,0.543,7.734-1.573   c0.181-0.181,0.303-0.422,0.303-0.723c0-0.303-0.122-0.605-0.303-0.785c-0.181-0.183-0.482-0.303-0.785-0.303   c-0.301,0-0.544,0.121-0.725,0.303c-1.45,1.449-3.564,1.872-5.438,1.087c-1.872-0.785-3.021-2.598-3.021-4.592V31.939   C368.097,29.946,369.246,28.132,371.118,27.347z"/>
	<path fill="#FFFFFF" d="M392.87,24.81c-3.867,0-7.131,3.262-7.131,7.13v12.085c0,2.901,1.754,5.438,4.411,6.587   c2.66,1.147,5.741,0.543,7.734-1.573c0.181-0.181,0.303-0.422,0.303-0.723c0-0.303-0.122-0.605-0.303-0.785   c-0.181-0.183-0.482-0.303-0.786-0.303c-0.301,0-0.544,0.121-0.725,0.303c-1.45,1.449-3.504,1.872-5.378,1.087   c-1.872-0.785-3.082-2.598-3.082-4.592v-4.954h10.999c0.663,0,1.087-0.424,1.087-1.089v-6.043   C400,28.072,396.738,24.81,392.87,24.81z M397.824,36.895h-9.91v-4.956c0-2.718,2.236-4.954,4.956-4.954   c2.718,0,4.954,2.236,4.954,4.954V36.895z"/>
</g>
</svg>