<?xml version="1.0" encoding="UTF-8"?>
<!-- Generator: Adobe Illustrator 17.0.2, SVG Export Plug-In . SVG Version: 6.00 Build 0)  -->
<!DOCTYPE svg PUBLIC "-//W3C//DTD SVG 1.1//EN" "http://www.w3.org/Graphics/SVG/1.1/DTD/svg11.dtd">
<svg version="1.1" id="Warstwa_1" xmlns="http://www.w3.org/2000/svg" xmlns:xlink="http://www.w3.org/1999/xlink" x="0px" y="0px" width="64px" height="64px" viewBox="0 0 64 64" enable-background="new 0 0 64 64" xml:space="preserve">
<g>
	<path fill="#FFFFFF" d="M58.672,25.796c-0.688-2.969-1.86-5.753-3.427-8.265l2.429-5.111L51.58,6.325l-5.111,2.43   c-2.512-1.567-5.295-2.739-8.265-3.427L36.309,0H27.69l-1.895,5.328c-2.969,0.688-5.753,1.86-8.265,3.427l-5.111-2.43L6.325,12.42   l2.43,5.111c-1.567,2.512-2.739,5.295-3.427,8.265L0,27.69v8.619l5.328,1.895c0.688,2.969,1.86,5.753,3.427,8.265l-2.43,5.111   l6.095,6.095l5.111-2.43c2.512,1.567,5.295,2.739,8.265,3.427L27.69,64h8.619l1.895-5.328c2.97-0.688,5.753-1.86,8.265-3.427   l5.111,2.429l6.095-6.095l-2.429-5.111c1.567-2.512,2.739-5.295,3.427-8.265L64,36.309V27.69L58.672,25.796z M32,50.714   c-10.336,0-18.714-8.379-18.714-18.714S21.664,13.286,32,13.286S50.714,21.664,50.714,32S42.336,50.714,32,50.714z"/>
	<path fill="#FFFFFF" d="M32.038,32.764L20.8,20.762l6.822,14.96c-0.651,1.493-0.553,3.275,0.421,4.729   c1.518,2.267,4.586,2.873,6.853,1.355c2.267-1.518,2.873-4.586,1.355-6.853C35.277,33.499,33.666,32.73,32.038,32.764z"/>
</g>
</svg>